<svg height="512" viewBox="0 0 32 32" width="512" xmlns="http://www.w3.org/2000/svg"><g id="Layer_89" data-name="Layer 89"><path d="m23 14a1 1 0 0 1 -1 1h-12a1 1 0 0 1 0-2h4.59l-1.3-1.29a1 1 0 0 1 0-1.42 1 1 0 0 1 1.42 0l.29.3v-3.59a1 1 0 0 1 2 0v3.59l.29-.3a1 1 0 0 1 1.42 1.42l-1.3 1.29h4.59a1 1 0 0 1 1 1zm-1 3h-12a1 1 0 0 0 0 2h4.59l-1.3 1.29a1 1 0 0 0 1.42 1.42l.29-.3v3.59a1 1 0 0 0 2 0v-3.59l.29.3a1 1 0 0 0 1.42 0 1 1 0 0 0 0-1.42l-1.3-1.29h4.59a1 1 0 0 0 0-2zm9-7v12a9 9 0 0 1 -9 9h-12a9 9 0 0 1 -9-9v-12a9 9 0 0 1 9-9h12a9 9 0 0 1 9 9zm-2 0a7 7 0 0 0 -7-7h-12a7 7 0 0 0 -7 7v12a7 7 0 0 0 7 7h12a7 7 0 0 0 7-7z"/></g></svg>