<?xml version="1.0" encoding="UTF-8" standalone="no"?>
<!-- Created with Inkscape (http://www.inkscape.org/) -->

<svg
   version="1.1"
   id="svg2403"
   xml:space="preserve"
   width="682.66669"
   height="682.66669"
   viewBox="0 0 682.66669 682.66669"
   xmlns="http://www.w3.org/2000/svg"
   xmlns:svg="http://www.w3.org/2000/svg"><defs
     id="defs2407"><clipPath
       clipPathUnits="userSpaceOnUse"
       id="clipPath2417"><path
         d="M 0,512 H 512 V 0 H 0 Z"
         id="path2415" /></clipPath></defs><g
     id="g2409"
     transform="matrix(1.3333333,0,0,-1.3333333,0,682.66667)"><g
       id="g2411"><g
         id="g2413"
         clip-path="url(#clipPath2417)"><g
           id="g2419"
           transform="translate(426.9971,295)"><path
             d="m 0,0 h -104.997 c -13.807,0 -25,-11.193 -25,-25 v -230 c 0,-13.807 11.193,-25 25,-25 h 150 c 13.807,0 25,11.193 25,25 v 184.999 z"
             style="fill:none;stroke:#000000;stroke-width:30;stroke-linecap:round;stroke-linejoin:round;stroke-miterlimit:10;stroke-dasharray:none;stroke-opacity:1"
             id="path2421" /></g><g
           id="g2423"
           transform="translate(427,295)"><path
             d="M 0,0 V -70 H 70 Z"
             style="fill:none;stroke:#000000;stroke-width:30;stroke-linecap:round;stroke-linejoin:round;stroke-miterlimit:10;stroke-dasharray:none;stroke-opacity:1"
             id="path2425" /></g><g
           id="g2427"
           transform="translate(144.9971,497)"><path
             d="m 0,0 h -104.997 c -13.807,0 -25,-11.193 -25,-25 v -230 c 0,-13.807 11.193,-25 25,-25 h 150 c 13.807,0 25,11.193 25,25 v 184.999 z"
             style="fill:none;stroke:#000000;stroke-width:30;stroke-linecap:round;stroke-linejoin:round;stroke-miterlimit:10;stroke-dasharray:none;stroke-opacity:1"
             id="path2429" /></g><g
           id="g2431"
           transform="translate(145,497)"><path
             d="M 0,0 V -70 H 70 Z"
             style="fill:none;stroke:#000000;stroke-width:30;stroke-linecap:round;stroke-linejoin:round;stroke-miterlimit:10;stroke-dasharray:none;stroke-opacity:1"
             id="path2433" /></g><g
           id="g2435"
           transform="translate(337,417)"><path
             d="M 0,0 -40,40 0,80"
             style="fill:none;stroke:#000000;stroke-width:30;stroke-linecap:round;stroke-linejoin:round;stroke-miterlimit:10;stroke-dasharray:none;stroke-opacity:1"
             id="path2437" /></g><g
           id="g2439"
           transform="translate(297,457)"><path
             d="M 0,0 H 40 C 95.273,0 140,-44.727 140,-100"
             style="fill:none;stroke:#000000;stroke-width:30;stroke-linecap:round;stroke-linejoin:round;stroke-miterlimit:10;stroke-dasharray:none;stroke-opacity:1"
             id="path2441" /></g><g
           id="g2443"
           transform="translate(175,95)"><path
             d="M 0,0 40,-40 0,-80"
             style="fill:none;stroke:#000000;stroke-width:30;stroke-linecap:round;stroke-linejoin:round;stroke-miterlimit:10;stroke-dasharray:none;stroke-opacity:1"
             id="path2445" /></g><g
           id="g2447"
           transform="translate(215,55)"><path
             d="M 0,0 H -40 C -95.273,0 -140,44.727 -140,100"
             style="fill:none;stroke:#000000;stroke-width:30;stroke-linecap:round;stroke-linejoin:round;stroke-miterlimit:10;stroke-dasharray:none;stroke-opacity:1"
             id="path2449" /></g><g
           id="g2451"
           transform="translate(357,165)"><path
             d="M 0,0 H 80"
             style="fill:none;stroke:#000000;stroke-width:30;stroke-linecap:round;stroke-linejoin:round;stroke-miterlimit:10;stroke-dasharray:none;stroke-opacity:1"
             id="path2453" /></g><g
           id="g2455"
           transform="translate(357,105)"><path
             d="M 0,0 H 80"
             style="fill:none;stroke:#000000;stroke-width:30;stroke-linecap:round;stroke-linejoin:round;stroke-miterlimit:10;stroke-dasharray:none;stroke-opacity:1"
             id="path2457" /></g><g
           id="g2459"
           transform="translate(75,367)"><path
             d="M 0,0 H 80"
             style="fill:none;stroke:#000000;stroke-width:30;stroke-linecap:round;stroke-linejoin:round;stroke-miterlimit:10;stroke-dasharray:none;stroke-opacity:1"
             id="path2461" /></g><g
           id="g2463"
           transform="translate(75,307)"><path
             d="M 0,0 H 80"
             style="fill:none;stroke:#000000;stroke-width:30;stroke-linecap:round;stroke-linejoin:round;stroke-miterlimit:10;stroke-dasharray:none;stroke-opacity:1"
             id="path2465" /></g></g></g></g></svg>
