<?xml version="1.0" encoding="UTF-8"?>
<svg xmlns="http://www.w3.org/2000/svg" viewBox="0 0 24 24" width="512" height="512"><g id="_4" data-name="4"><path d="M10.31641,8.67139V6.32861a.3751.3751,0,0,1,.375-.375h1.30175a.375.375,0,0,1,0,.75h-.92675v.291h.92675a.375.375,0,0,1,0,.75h-.92675v.92676a.375.375,0,0,1-.75,0Zm-2.63282-1.562A1.15738,1.15738,0,0,1,6.52734,8.26563h-.1455v.40576a.375.375,0,0,1-.75,0V6.32861a.37509.37509,0,0,1,.375-.375h.5205A1.15728,1.15728,0,0,1,7.68359,7.10938Zm-.75,0a.40677.40677,0,0,0-.40625-.40577h-.1455v.812h.1455A.40687.40687,0,0,0,6.93359,7.10938ZM21.85645,8.85645,16,14.71246V21a.99974.99974,0,0,1-1,1H3a.99974.99974,0,0,1-1-1V6a1.00094,1.00094,0,0,1,.168-.55469l2-3A1.00028,1.00028,0,0,1,5,2H15a.99974.99974,0,0,1,1,1V7.709l2.35449-2.35449a.99964.99964,0,0,1,1.41406,0l2.0879,2.08789a.99967.99967,0,0,1,0,1.41407ZM14,16.43146l-3.04,1.0993A1.00014,1.00014,0,0,1,9.67969,16.25l1.18261-3.27a1.00144,1.00144,0,0,1,.2334-.3667L14,9.709V4H5.53516L4,6.30273V20H14Zm5.73535-8.28205-.67383-.67382L12.667,13.87012l-.38086,1.05468,1.05469-.38183ZM10.02539,7.5a1.54791,1.54791,0,0,1-1.5459,1.54639H8.34961a.3751.3751,0,0,1-.375-.375V6.32861a.3751.3751,0,0,1,.375-.375h.12988A1.54791,1.54791,0,0,1,10.02539,7.5Zm-.75,0a.7977.7977,0,0,0-.55078-.75781V8.25781A.7977.7977,0,0,0,9.27539,7.5Z"/></g></svg>
