<svg id="Layer_1" viewBox="0 0 64 64" xmlns="http://www.w3.org/2000/svg"><path d="m9.26 62h29.58c1.91 0 3.47-1.55 3.47-3.46v-4.5h4.48c1.91 0 3.47-1.55 3.47-3.46v-4.48h4.48c1.91 0 3.47-1.56 3.47-3.47v-29.65c0-.08-.01-.17-.03-.24-.02-.09-.05-.18-.1-.25-.04-.08-.1-.15-.16-.22l-9.98-9.97c-.04-.04-.09-.08-.13-.11-.07-.05-.14-.09-.22-.12-.05-.02-.1-.03-.16-.04-.06-.02-.13-.03-.19-.03h-22.07c-1.92 0-3.48 1.56-3.48 3.47v4.48h-4.48c-1.91 0-3.47 1.56-3.47 3.47v4.48h-4.48c-1.91 0-3.47 1.56-3.47 3.47v37.17c0 1.91 1.56 3.46 3.47 3.46zm14.43-56.53c0-.81.66-1.47 1.48-1.47h21.07v6.51c0 1.91 1.55 3.47 3.46 3.47h6.51v28.65c0 .81-.66 1.47-1.47 1.47h-4.48v-23.17c0-.26-.11-.52-.3-.71l-9.97-9.97c-.04-.04-.09-.08-.13-.11-.08-.06-.16-.1-.24-.12-.05-.02-.09-.03-.14-.04-.06-.02-.13-.03-.2-.03h-15.59v-4.48zm-7.95 7.95c0-.81.66-1.47 1.47-1.47h21.08v6.51c0 1.91 1.55 3.47 3.46 3.47h6.51v28.65c0 .81-.66 1.46-1.47 1.46h-4.48v-23.16c0-.13-.03-.26-.08-.38s-.13-.24-.22-.33l-9.91-9.9-.06-.07c-.02-.02-.05-.04-.07-.06-.01-.01-.02-.02-.03-.03-.04-.03-.09-.06-.14-.09-.04-.01-.08-.03-.12-.05-.05-.02-.1-.03-.16-.04-.06-.02-.13-.03-.19-.03h-15.59zm-7.95 7.95c0-.81.66-1.47 1.47-1.47h21.07v6.51c0 1.91 1.56 3.47 3.47 3.47h6.51v28.66c0 .8-.66 1.46-1.47 1.46h-29.58c-.81 0-1.47-.66-1.47-1.46z"/><path d="m13.12 34.5h21.855c.552 0 1-.448 1-1s-.448-1-1-1h-21.855c-.552 0-1 .448-1 1s.448 1 1 1z"/><path d="m13.12 39.822h21.855c.552 0 1-.448 1-1s-.448-1-1-1h-21.855c-.552 0-1 .448-1 1s.448 1 1 1z"/><path d="m13.12 45.145h21.855c.552 0 1-.448 1-1s-.448-1-1-1h-21.855c-.552 0-1 .448-1 1s.448 1 1 1z"/><path d="m13.12 50.468h21.855c.552 0 1-.448 1-1s-.448-1-1-1h-21.855c-.552 0-1 .448-1 1s.448 1 1 1z"/></svg>