<svg id="b" viewBox="0 0 512 512" xmlns="http://www.w3.org/2000/svg" data-name="Layer 3"><path d="m330 72.087c9.925 0 18-8.075 18-18s-8.075-18-18-18-18 8.075-18 18 8.075 18 18 18zm0-24c3.309 0 6 2.691 6 6s-2.691 6-6 6-6-2.691-6-6 2.691-6 6-6z"/><path d="m385.305 72.087c9.925 0 18-8.075 18-18s-8.075-18-18-18-18 8.075-18 18 8.075 18 18 18zm0-24c3.309 0 6 2.691 6 6s-2.691 6-6 6-6-2.691-6-6 2.691-6 6-6z"/><path d="m440.608 72.087c9.925 0 18-8.075 18-18s-8.075-18-18-18-18 8.075-18 18 8.075 18 18 18zm0-24c3.309 0 6 2.691 6 6s-2.691 6-6 6-6-2.691-6-6 2.691-6 6-6z"/><path d="m508 348.862v-326.862c0-9.925-8.075-18-18-18h-468c-9.925 0-18 8.075-18 18v326.862c0 9.925 8.075 18 18 18h280.533l71.063 71.063c2.174 2.174 4.754 3.783 7.559 4.805-2.993 2.305-3.818 6.691-.985 9.471 1.171 1.171 2.707 1.757 4.242 1.757 2.031.091 3.906-1.211 5.236-2.752 1.002 2.762 2.586 5.358 4.797 7.568l2.946 2.945c1.831 1.831 3.961 3.248 6.25 4.263l-.798.798c-2.344 2.343-2.344 6.142 0 8.485 1.171 1.172 2.706 1.757 4.242 1.757 2.127.112 4.043-1.357 5.424-2.939 1.022 2.805 2.631 5.385 4.806 7.559l19.696 19.697c3.918 3.917 9.127 6.075 14.667 6.075s10.75-2.158 14.668-6.075l35.578-35.58c3.918-3.917 6.076-9.126 6.076-14.667s-2.158-10.75-6.075-14.667l-19.697-19.697c-2.213-2.213-4.812-3.798-7.578-4.8 2.274-2.348 2.259-6.091-.061-8.411-2.188-2.19-5.636-2.306-7.992-.402-1.016-2.319-2.452-4.469-4.293-6.311l-2.946-2.946c-2.174-2.174-4.754-3.783-7.559-4.805l.115-.115c2.344-2.343 2.344-6.142 0-8.485-2.381-2.389-6.283-2.329-8.601.116-1.022-2.805-2.631-5.385-4.805-7.559l-6.148-6.149h57.64c9.925 0 18-8.075 18-18zm-486-332.862h468c3.309 0 6 2.691 6 6v70.174h-206.638c-1.603 0-3.109-.624-4.243-1.757l-21.361-21.361c-3.399-3.4-7.92-5.272-12.729-5.272h-235.029v-41.784c0-3.309 2.691-6 6-6zm209.355 262.715c6.88-2.327 16.083-6.601 25.12-14.339l151.516 151.517-13.548 13.547c-1.65 1.651-3.846 2.561-6.181 2.561s-4.531-.909-6.183-2.561l-150.725-150.725zm19.908 36.878h-160.524c-3.309 0-6-2.691-6-6v-6.521c0-3.309 2.691-6 6-6h142.003zm-38.576-103.489 17.972 3.698c-.879 3.28-2.381 7.112-4.771 9.502-2.391 2.39-6.223 3.893-9.502 4.772l-3.698-17.972zm25.555-6.994-32.059-6.596c-1.975-.404-4.024.207-5.452 1.634-1.309 1.309-1.923 3.142-1.703 4.961h-108.289c-3.309 0-6-2.691-6-6v-6.521c0-3.309 2.691-6 6-6h330.522c3.309 0 6 2.691 6 6v6.521c0 3.309-2.691 6-6 6h-183.018zm-27.88 55.241h-119.623c-3.309 0-6-2.691-6-6v-6.521c0-3.309 2.691-6 6-6h115.812zm24.011-26.563c4.536-4.537 6.878-10.822 8.069-15.563l26.469 5.446c-1.786 6.467-6.176 17.813-16.509 28.146-10.334 10.333-21.681 14.723-28.147 16.509l-5.445-26.468c4.741-1.191 11.026-3.534 15.563-8.07zm259.066 211.124c1.651 1.651 2.561 3.847 2.561 6.182s-.909 4.531-2.561 6.182l-35.58 35.58c-1.65 1.651-3.846 2.561-6.182 2.561s-4.53-.909-6.182-2.561l-19.697-19.697c-1.651-1.651-2.561-3.847-2.561-6.182s.909-4.531 2.561-6.182l35.582-35.582c1.705-1.703 3.941-2.553 6.18-2.553s4.478.852 6.182 2.556l19.697 19.697zm-37.313-31.414-3.229 3.229s-.002.002-.003.003l-38.823 38.823c-2.923.688-6.04-.162-8.195-2.319l-2.945-2.945c-3.409-3.409-3.409-8.955 0-12.364l35.581-35.58c1.65-1.651 3.846-2.561 6.181-2.561s4.531.909 6.183 2.561l2.945 2.946c2.149 2.149 2.997 5.283 2.308 8.207zm-26.103-19.637-13.547 13.547-151.516-151.516c7.738-9.037 12.012-18.24 14.339-25.119l99.277 99.277c2.342 2.343 6.143 2.343 8.484 0 .883-.883 1.432-1.973 1.649-3.114 7.623-2.093 13.247-9.064 13.247-17.342v-6.521c0-9.925-8.075-18-18-18h-33.389l-12.72-12.72h83.412c9.925 0 18-8.075 18-18v-6.521c0-9.925-8.075-18-18-18h-125.934l-12.72-12.72h138.653c9.925 0 18-8.075 18-18v-6.521c0-9.925-8.075-18-18-18h-330.519c-9.925 0-18 8.075-18 18v6.521c0 9.925 8.075 18 18 18h110.727l2.617 12.72h-113.344c-9.925 0-18 8.075-18 18v6.521c0 9.925 8.075 18 18 18h122.092l.883 4.294c.236 1.149.805 2.204 1.635 3.034l5.392 5.392h-130.002c-9.925 0-18 8.075-18 18v6.521c0 9.925 8.075 18 18 18h172.524l27.27 27.27h-268.533c-3.309 0-6-2.691-6-6v-273.081h235.029c1.603 0 3.109.624 4.243 1.757l21.361 21.361c3.399 3.4 7.92 5.272 12.729 5.272h206.638v244.688c0 3.309-2.691 6-6 6h-69.783c-2.342-1.659-5.601-1.457-7.699.642-2.344 2.343-2.344 6.142 0 8.485l17.507 17.507c3.408 3.409 3.408 8.956 0 12.364zm-122.696-152.031h113.934c3.309 0 6 2.691 6 6v6.521c0 3.309-2.691 6-6 6h-95.412l-18.521-18.521zm76.63 73.763h-2.867l-18.521-18.521h21.389c3.309 0 6 2.691 6 6v6.521c0 3.309-2.691 6-6 6z"/><path d="m439.261 137.348c0-9.925-8.075-18-18-18h-289.305c-9.925 0-18 8.075-18 18v6.522c0 9.925 8.075 18 18 18h289.305c9.925 0 18-8.075 18-18zm-12 6.522c0 3.309-2.691 6-6 6h-289.305c-3.309 0-6-2.691-6-6v-6.522c0-3.309 2.691-6 6-6h289.305c3.309 0 6 2.691 6 6z"/><circle cx="399.789" cy="342.777" r="6"/></svg>