<svg id="b" viewBox="0 0 512 512" xmlns="http://www.w3.org/2000/svg" data-name="Layer 3"><circle cx="330" cy="54.087" r="6"/><circle cx="385.305" cy="54.087" r="6"/><circle cx="440.608" cy="54.087" r="6"/><path d="m508 348.862v-326.862c0-9.925-8.075-18-18-18h-468c-9.925 0-18 8.075-18 18v326.862c0 9.925 8.075 18 18 18h280.532l71.062 71.063c2.174 2.174 4.754 3.783 7.56 4.805l-.985.985c-2.344 2.343-2.344 6.142 0 8.485 1.171 1.171 2.707 1.757 4.242 1.757s3.071-.586 4.242-1.757l.994-.994c1.002 2.762 2.586 5.358 4.797 7.568l2.945 2.945c2.174 2.174 4.754 3.783 7.56 4.805-4.829 3.302-2.696 11.318 3.257 11.228 1.815.045 3.591-.916 4.825-2.34 1.016 2.267 2.44 4.386 4.284 6.23l19.696 19.697c3.918 3.917 9.127 6.075 14.668 6.075s10.749-2.158 14.666-6.075l35.579-35.58c3.918-3.917 6.076-9.126 6.076-14.667s-2.158-10.75-6.075-14.667l-19.697-19.697c-1.854-1.855-3.987-3.285-6.268-4.302 2.066-2.357 1.999-5.931-.25-8.179-2.341-2.343-6.142-2.344-8.484 0l-.125.125c-1.002-2.761-2.586-5.357-4.797-7.568l-2.946-2.946c-2.174-2.174-4.754-3.783-7.559-4.805l.115-.115c2.344-2.343 2.344-6.142 0-8.485-2.342-2.343-6.143-2.343-8.484 0l-.125.124c-1.002-2.761-2.586-5.357-4.796-7.567l-6.149-6.149h57.641c9.925 0 18-8.075 18-18zm-196-294.775c0-9.925 8.075-18 18-18s18 8.075 18 18-8.075 18-18 18-18-8.075-18-18zm55.305 0c0-9.925 8.075-18 18-18s18 8.075 18 18-8.075 18-18 18-18-8.075-18-18zm55.304 0c0-9.925 8.075-18 18-18s18 8.075 18 18-8.075 18-18 18-18-8.075-18-18zm-191.253 224.628c6.88-2.327 16.083-6.601 25.12-14.339l151.516 151.517-13.548 13.547c-1.65 1.651-3.846 2.561-6.182 2.561s-4.53-.909-6.182-2.561l-150.725-150.725zm21.047-26.897c-10.334 10.333-21.681 14.723-28.147 16.509l-.651-3.167c-.002-.012-.005-.024-.007-.036l-4.787-23.266c4.741-1.191 11.026-3.534 15.563-8.07 4.536-4.537 6.878-10.822 8.069-15.563l26.469 5.446c-1.786 6.467-6.176 17.813-16.509 28.146zm-21.743-36.017c-.878 3.28-2.381 7.112-4.771 9.502-2.391 2.39-6.223 3.893-9.502 4.772l-3.698-17.972 17.972 3.698zm223.159 201.854-35.58 35.579c-1.65 1.651-3.846 2.561-6.182 2.561s-4.53-.909-6.182-2.561l-2.945-2.945c-3.409-3.409-3.409-8.955 0-12.364l35.581-35.58c1.65-1.651 3.846-2.561 6.181-2.561s4.531.909 6.183 2.561l2.945 2.946c3.409 3.409 3.409 8.955 0 12.364zm-23.79-23.801-11.865 11.865-1.688 1.688-151.517-151.517c7.738-9.037 12.012-18.24 14.339-25.119l9.298 9.298.004.004 30.513 30.514s.008.008.012.012l110.896 110.897c3.408 3.407 3.409 8.949.005 12.358zm-38.588-67.912c6.195-2.848 10.517-9.097 10.517-16.35v-6.522c0-9.925-8.075-18-18-18h-33.389l-12.719-12.719h83.412c9.925 0 18-8.075 18-18v-6.522c0-9.925-8.075-18-18-18h-125.934l-12.719-12.719h138.653c9.925 0 18-8.075 18-18v-6.522c0-9.925-8.075-18-18-18h-330.523c-9.925 0-18 8.075-18 18v6.522c0 9.925 8.075 18 18 18h110.727l2.617 12.719h-113.344c-9.925 0-18 8.075-18 18v6.522c0 9.925 8.075 18 18 18h122.092l.883 4.293c.236 1.149.805 2.204 1.635 3.034l5.392 5.392h-130.002c-9.925 0-18 8.075-18 18v6.522c0 9.925 8.075 18 18 18h172.524l27.269 27.269h-268.532c-3.309 0-6-2.691-6-6v-273.078h235.029c1.603 0 3.109.624 4.243 1.757l21.361 21.361c3.399 3.4 7.92 5.272 12.729 5.272h206.638v244.688c0 3.309-2.691 6-6 6h-69.641l-28.919-28.919z"/><rect height="42.522" rx="18" width="325.305" x="113.956" y="119.348"/></svg>