<svg id="Layer_1" enable-background="new 0 0 66 66" viewBox="0 0 66 66" xmlns="http://www.w3.org/2000/svg"><g id="Translate"><g><path d="m42.8408165 48.3702393h6.9732666l-3.4918213-7.4342652z"/><path d="m58.9790001 27.6444702h-19.0875244v4.6899414c0 4.1676636-3.3892822 7.5571289-7.5570068 7.5571289h-4.6899414v19.0872803c0 3.3280029 2.7033691 6.0211182 6.0212402 6.0211182h25.3132324c3.3278809 0 6.0209999-2.6931153 6.0209999-6.0211182v-25.3132324c0-3.328003-2.693119-6.0211182-6.0209999-6.0211182zm-3.7888184 28.7846069c-.7270508.3379517-1.5871582.0205078-1.925293-.6962891l-2.0991211-4.4646606h-9.6870116l-2.0889893 4.4646606c-.3503532.7445641-1.2401161 1.0210571-1.9249268.6962891-.7270508-.3481445-1.0445557-1.208313-.6965332-1.9353027l8.2431641-17.5820923c.5511017-1.1247787 2.1128616-1.0834732 2.621582 0l8.253418 17.5820923c.3378906.7269898.0307617 1.5871582-.6962891 1.9353027z"/><path d="m7.0212374 38.3555298h25.3132324c3.328125 0 6.0209961-2.6931152 6.0209961-6.0211182v-25.3132324c0-3.3280029-2.6928711-6.0211182-6.0209961-6.0211182h-25.3132324c-3.3278811 0-6.0212402 2.6931152-6.0212402 6.0211182v25.3132324c-.0000003 3.328003 2.6933591 6.0211182 6.0212402 6.0211182zm2.6317138-26.7570801h8.7857656v-2.5497436c0-.6860962.5529785-1.2390747 1.2390137-1.2390747.6861572 0 1.2392578.5529785 1.2392578 1.2390747v2.5497437c.1632385 0 9.1459923 0 8.7960205 0 .6861572 0 1.2390137.5529175 1.2390137 1.2390137 0 .6758423-.5528564 1.2288208-1.2390137 1.2288208h-3.4508057c-.2355957 4.0550537-1.6179199 7.5775757-3.8911133 10.3218994 2.3549805 1.5462646 5.0480957 2.4371338 7.5058594 2.7750854.6896973.0950737 1.1396885.7196541 1.0648193 1.3925781-.0919189.6246338-.6245117 1.0751953-1.2287598 1.0751953-1.1775475 0-5.605341-1.0044861-9.0931396-3.4406128-2.6726074 2.3347168-6.1540518 3.8092651-10.2194815 4.1471558h-.1022949c-.6350098 0-1.1777344-.4914551-1.2287598-1.1365967-.0615234-.6758423.4504395-1.2799683 1.1262207-1.3311768 3.3688965-.2764893 6.2362051-1.4234009 8.4685049-3.2461548-1.9763184-1.8431396-3.5737295-4.218811-4.4440908-7.2089233-.1945801-.6553345.1843262-1.3414307.8395996-1.5359497.6555176-.1945801 1.3415518.194519 1.5358877.8499146.7374268 2.5497437 2.130127 4.5772705 3.8400879 6.1541748 1.9458008-2.314209 3.123291-5.3145752 3.3485107-8.8165894h-14.1311024c-.6861572 0-1.2391357-.5529785-1.2391357-1.2288208 0-.6860962.5529785-1.2390137 1.2391357-1.2390137z"/><path d="m47.0781212 5.4890747h6.8028564c2.1451416 0 3.8902588 1.7451172 3.8902588 3.8909302v4.7150879h-1.6870117c-.8114014 0-1.3186035.878418-.9128418 1.5811157l3.9301758 6.8060303c.4057617.7025757 1.4199219.7025757 1.8255615 0l3.9300575-6.8060303c.4057617-.7026978-.1013184-1.5811157-.9127235-1.5811157h-1.6864014v-4.7150879c0-4.6195679-3.7581787-8.3777466-8.3770752-8.3777466h-6.8028564c-1.2387695 0-2.2434082 1.0040283-2.2434082 2.2434082s1.0046387 2.2434082 2.2434082 2.2434082z"/><path d="m18.9268761 60.508606h-6.8028555c-2.1450195 0-3.8902588-1.7451172-3.8902588-3.8909302v-4.7150879h1.6870117c.8114014 0 1.3184814-.878418.9127197-1.5811157l-3.9300537-6.8059692c-.4056396-.7026367-1.4197998-.7026367-1.8255615 0l-3.930176 6.8059692c-.4057617.7026978.1014404 1.5811157.9128418 1.5811157h1.6864014v4.7150879c0 4.6195679 3.7581789 8.3777466 8.3770752 8.3777466h6.8028555c1.2387695 0 2.2434082-1.0040283 2.2434082-2.2434082s-1.0046385-2.2434082-2.243408-2.2434082z"/></g></g></svg>