<svg width="96" height="96" viewBox="0 0 96 96" fill="none" xmlns="http://www.w3.org/2000/svg">
  <path d="M67.4551 8.00085H31.4551C29.3333 8.00085 27.2985 8.84371 25.7982 10.344C24.2979 11.8443 23.4551 13.8791 23.4551 16.0009V80.0008C23.4551 82.1226 24.2979 84.1574 25.7982 85.6577C27.2985 87.158 29.3333 88.0008 31.4551 88.0008H79.4551C81.5768 88.0008 83.6116 87.158 85.1119 85.6577C86.6122 84.1574 87.4551 82.1226 87.4551 80.0008V28.0008L67.4551 8.00085Z" fill="white" stroke="#2E2E2E" stroke-width="2.52632" stroke-linecap="round" stroke-linejoin="round"/>
  <path d="M63.4546 8.00085V24.0009C63.4546 26.1226 64.2974 28.1574 65.7977 29.6577C67.298 31.158 69.3329 32.0009 71.4546 32.0009H87.4546" stroke="#2E2E2E" stroke-width="2.52632" stroke-linecap="round" stroke-linejoin="round"/>
  <path fill-rule="evenodd" clip-rule="evenodd" d="M65.1378 42.9474C63.5975 42.9474 62.3308 44.2141 62.3308 45.7544C62.3308 47.6692 63.3947 50.0464 64.515 52.2807C63.6393 55.022 62.6456 57.9597 61.3746 60.4386C60.9144 60.6192 60.463 60.7916 60.024 60.9592L60.0237 60.9593C57.9813 61.7392 56.2068 62.4169 55.0589 63.3421C55.0371 63.3644 55.0166 63.3878 54.9974 63.4123C54.4878 63.9335 54.1904 64.6431 54.1904 65.4035C54.1904 66.9438 55.4571 68.2105 56.9974 68.2105C57.7486 68.2105 58.4735 67.9303 58.9974 67.3948C59.0156 67.3809 59.0331 67.3662 59.0501 67.3509C60.0767 66.125 61.2873 63.9011 62.3659 61.8684C64.8517 60.8906 67.4571 59.8956 69.9711 59.2983C71.8064 60.7774 74.4616 61.7544 76.6466 61.7544C78.1869 61.7544 79.4536 60.4877 79.4536 58.9474C79.4536 57.4071 78.1869 56.1404 76.6466 56.1404C74.8943 56.1404 72.3479 56.7659 70.401 57.4211C68.8228 55.9396 67.3729 54.0892 66.3308 52.1228C66.4434 51.7758 66.559 51.4287 66.6739 51.0834C67.3186 49.1464 67.9448 47.2647 67.9448 45.7544C67.9448 44.2141 66.6781 42.9474 65.1378 42.9474ZM65.1385 44.6324C65.7686 44.6324 66.2613 45.1251 66.2613 45.7552C66.2613 46.5977 65.8101 48.1489 65.2876 49.8166C64.5894 48.1943 64.0157 46.6377 64.0157 45.7552C64.0157 45.1251 64.5084 44.6324 65.1385 44.6324ZM68.5331 57.9384C67.4538 56.8292 66.465 55.5796 65.6208 54.2366C65.0335 56.0237 64.4132 57.8386 63.6383 59.5875C65.2427 58.9768 66.8684 58.3936 68.5331 57.9384ZM76.646 57.824C77.2761 57.824 77.7688 58.3167 77.7688 58.9468C77.7688 59.5769 77.2761 60.0696 76.646 60.0696C75.3811 60.0696 73.5832 59.4986 72.146 58.7012C73.7957 58.2348 75.5958 57.824 76.646 57.824ZM57.7702 66.238C58.319 65.5761 59.1036 64.261 59.893 62.852C58.2648 63.5037 56.8322 64.1143 56.1737 64.6239C56.0015 64.8136 55.8755 65.1081 55.8755 65.4046C55.8755 66.0347 56.3682 66.5274 56.9983 66.5274C57.3333 66.5274 57.5827 66.4172 57.7702 66.238Z" fill="#2E2E2E"/>
  <path d="M64.515 52.2807L64.7885 52.3681L64.8241 52.2566L64.7716 52.152L64.515 52.2807ZM61.3746 60.4386L61.4795 60.7059L61.5806 60.6662L61.6301 60.5696L61.3746 60.4386ZM60.024 60.9592L59.9216 60.691L59.9209 60.6913L60.024 60.9592ZM60.0237 60.9593L60.1261 61.2275L60.1268 61.2273L60.0237 60.9593ZM55.0589 63.3421L54.8787 63.1186L54.8655 63.1293L54.8536 63.1414L55.0589 63.3421ZM54.9974 63.4123L55.2027 63.613L55.2138 63.6016L55.2236 63.5891L54.9974 63.4123ZM58.9974 67.3948L58.8228 67.1669L58.8065 67.1794L58.7922 67.194L58.9974 67.3948ZM59.0501 67.3509L59.2427 67.5638L59.2574 67.5504L59.2702 67.5352L59.0501 67.3509ZM62.3659 61.8684L62.2608 61.6013L62.162 61.6401L62.1123 61.7339L62.3659 61.8684ZM69.9711 59.2983L70.1513 59.0747L70.0417 58.9864L69.9048 59.019L69.9711 59.2983ZM70.401 57.4211L70.2045 57.6304L70.3297 57.7479L70.4925 57.6932L70.401 57.4211ZM66.3308 52.1228L66.0577 52.0342L66.0202 52.1498L66.0771 52.2573L66.3308 52.1228ZM66.6739 51.0834L66.4015 50.9927L66.6739 51.0834ZM65.2876 49.8166L65.0239 49.9301L65.33 50.6414L65.5616 49.9025L65.2876 49.8166ZM65.6208 54.2366L65.8638 54.0838L65.5387 53.5667L65.348 54.147L65.6208 54.2366ZM68.5331 57.9384L68.6088 58.2153L69.0782 58.087L68.7388 57.7382L68.5331 57.9384ZM63.6383 59.5875L63.3758 59.4712L63.0969 60.1008L63.7404 59.8558L63.6383 59.5875ZM72.146 58.7012L72.0679 58.425L71.3979 58.6144L72.0067 58.9523L72.146 58.7012ZM59.893 62.852L60.1435 62.9923L60.5405 62.2836L59.7863 62.5855L59.893 62.852ZM57.7702 66.238L57.9686 66.4455L57.9806 66.434L57.9912 66.4212L57.7702 66.238ZM56.1737 64.6239L55.998 64.3969L55.9781 64.4123L55.9612 64.431L56.1737 64.6239ZM62.6179 45.7544C62.6179 44.3727 63.756 43.2345 65.1378 43.2345V42.6603C63.4389 42.6603 62.0437 44.0556 62.0437 45.7544H62.6179ZM64.7716 52.152C64.2127 51.0373 63.6727 49.8963 63.2725 48.7993C62.8714 47.6999 62.6179 46.6633 62.6179 45.7544H62.0437C62.0437 46.7603 62.3221 47.8697 62.7331 48.9961C63.1449 50.125 63.697 51.2898 64.2584 52.4094L64.7716 52.152ZM61.6301 60.5696C62.913 58.0673 63.9129 55.109 64.7885 52.3681L64.2415 52.1934C63.3657 54.9351 62.3781 57.8521 61.1192 60.3076L61.6301 60.5696ZM60.1264 61.2274C60.5653 61.0598 61.0179 60.887 61.4795 60.7059L61.2698 60.1714C60.811 60.3514 60.3608 60.5233 59.9216 60.691L60.1264 61.2274ZM60.1268 61.2273L60.1271 61.2271L59.9209 60.6913L59.9205 60.6914L60.1268 61.2273ZM55.239 63.5656C56.3434 62.6754 58.067 62.0138 60.1261 61.2275L59.9213 60.6911C57.8957 61.4646 56.0701 62.1583 54.8787 63.1186L55.239 63.5656ZM55.2236 63.5891C55.2363 63.5729 55.2498 63.5575 55.2641 63.5428L54.8536 63.1414C54.8244 63.1712 54.797 63.2026 54.7713 63.2355L55.2236 63.5891ZM54.4775 65.4035C54.4775 64.7186 54.7452 64.0809 55.2027 63.613L54.7922 63.2116C54.2304 63.7861 53.9033 64.5677 53.9033 65.4035H54.4775ZM56.9974 67.9235C55.6157 67.9235 54.4775 66.7853 54.4775 65.4035H53.9033C53.9033 67.1024 55.2986 68.4976 56.9974 68.4976V67.9235ZM58.7922 67.194C58.3268 67.6697 57.678 67.9235 56.9974 67.9235V68.4976C57.8191 68.4976 58.6203 68.1908 59.2027 67.5955L58.7922 67.194ZM58.8575 67.138C58.8463 67.1481 58.8347 67.1578 58.8228 67.1669L59.1721 67.6226C59.1964 67.6039 59.22 67.5843 59.2427 67.5638L58.8575 67.138ZM62.1123 61.7339C61.0288 63.7758 59.833 65.9688 58.83 67.1666L59.2702 67.5352C60.3204 66.2811 61.5458 64.0264 62.6195 62.003L62.1123 61.7339ZM69.9048 59.019C67.3683 59.6216 64.7452 60.624 62.2608 61.6013L62.471 62.1356C64.9581 61.1572 67.5458 60.1696 70.0375 59.5776L69.9048 59.019ZM76.6466 61.4673C74.5324 61.4673 71.9399 60.5162 70.1513 59.0747L69.791 59.5218C71.673 61.0385 74.3907 62.0415 76.6466 62.0415V61.4673ZM79.1665 58.9474C79.1665 60.3291 78.0283 61.4673 76.6466 61.4673V62.0415C78.3454 62.0415 79.7407 60.6462 79.7407 58.9474H79.1665ZM76.6466 56.4275C78.0283 56.4275 79.1665 57.5656 79.1665 58.9474H79.7407C79.7407 57.2485 78.3454 55.8533 76.6466 55.8533V56.4275ZM70.4925 57.6932C72.4317 57.0406 74.9422 56.4275 76.6466 56.4275V55.8533C74.8464 55.8533 72.2641 56.4912 70.3094 57.149L70.4925 57.6932ZM66.0771 52.2573C67.135 54.2534 68.6048 56.1287 70.2045 57.6304L70.5974 57.2118C69.0408 55.7504 67.6108 53.9251 66.5844 51.9884L66.0771 52.2573ZM66.4015 50.9927C66.2866 51.3379 66.1708 51.686 66.0577 52.0342L66.6038 52.2115C66.7161 51.8656 66.8313 51.5195 66.9463 51.174L66.4015 50.9927ZM67.6577 45.7544C67.6577 47.2077 67.0518 49.0388 66.4015 50.9927L66.9463 51.174C67.5853 49.2539 68.2319 47.3218 68.2319 45.7544H67.6577ZM65.1378 43.2345C66.5195 43.2345 67.6577 44.3727 67.6577 45.7544H68.2319C68.2319 44.0556 66.8366 42.6603 65.1378 42.6603V43.2345ZM66.5484 45.7552C66.5484 44.9666 65.9271 44.3453 65.1385 44.3453V44.9195C65.61 44.9195 65.9742 45.2837 65.9742 45.7552H66.5484ZM65.5616 49.9025C65.823 49.068 66.0685 48.2569 66.2487 47.5471C66.4272 46.8438 66.5484 46.2153 66.5484 45.7552H65.9742C65.9742 46.1377 65.8698 46.706 65.6921 47.4058C65.5161 48.0992 65.2747 48.8975 65.0137 49.7308L65.5616 49.9025ZM63.7286 45.7552C63.7286 46.245 63.885 46.8916 64.1171 47.5981C64.3516 48.3121 64.6734 49.1157 65.0239 49.9301L65.5513 49.7031C65.2036 48.8952 64.8894 48.1094 64.6625 47.4189C64.4332 46.7209 64.3028 46.1479 64.3028 45.7552H63.7286ZM65.1385 44.3453C64.3498 44.3453 63.7286 44.9666 63.7286 45.7552H64.3028C64.3028 45.2837 64.667 44.9195 65.1385 44.9195V44.3453ZM65.3777 54.3894C66.2329 55.7497 67.2342 57.0152 68.3273 58.1386L68.7388 57.7382C67.6734 56.6432 66.6972 55.4094 65.8638 54.0838L65.3777 54.3894ZM63.9008 59.7038C64.6819 57.9408 65.306 56.1142 65.8935 54.3263L65.348 54.147C64.7611 55.9332 64.1445 57.7364 63.3758 59.4712L63.9008 59.7038ZM68.4573 57.6615C66.7792 58.1204 65.1432 58.7075 63.5362 59.3192L63.7404 59.8558C65.3421 59.2461 66.9576 58.6668 68.6088 58.2153L68.4573 57.6615ZM78.0559 58.9468C78.0559 58.1582 77.4347 57.537 76.646 57.537V58.1111C77.1176 58.1111 77.4817 58.4753 77.4817 58.9468H78.0559ZM76.646 60.3567C77.4347 60.3567 78.0559 59.7355 78.0559 58.9468H77.4817C77.4817 59.4184 77.1176 59.7826 76.646 59.7826V60.3567ZM72.0067 58.9523C73.4695 59.7638 75.316 60.3567 76.646 60.3567V59.7826C75.4462 59.7826 73.697 59.2334 72.2853 58.4502L72.0067 58.9523ZM76.646 57.537C75.5504 57.537 73.7138 57.9596 72.0679 58.425L72.2241 58.9775C73.8776 58.5099 75.6412 58.1111 76.646 58.1111V57.537ZM59.6426 62.7117C58.8504 64.1256 58.0783 65.4167 57.5492 66.0547L57.9912 66.4212C58.5597 65.7356 59.3569 64.3964 60.1435 62.9923L59.6426 62.7117ZM56.3494 64.851C56.6511 64.6175 57.1484 64.3486 57.7902 64.0518C58.4269 63.7573 59.1863 63.4441 59.9997 63.1185L59.7863 62.5855C58.9715 62.9116 58.2004 63.2295 57.5492 63.5307C56.9031 63.8295 56.3548 64.1208 55.998 64.3969L56.3494 64.851ZM56.1625 65.4046C56.1625 65.1824 56.26 64.956 56.3863 64.8169L55.9612 64.431C55.743 64.6713 55.5884 65.0338 55.5884 65.4046H56.1625ZM56.9983 66.2404C56.5267 66.2404 56.1625 65.8761 56.1625 65.4046H55.5884C55.5884 66.1932 56.2096 66.8145 56.9983 66.8145V66.2404ZM57.5718 66.0305C57.4402 66.1563 57.263 66.2404 56.9983 66.2404V66.8145C57.4037 66.8145 57.7252 66.6782 57.9686 66.4455L57.5718 66.0305Z" fill="#2E2E2E"/>
  <rect x="8" y="34.912" width="43.6364" height="43.6364" rx="6.54545" fill="#F5523C"/>
  <path d="M40.7923 49.6309V64.3667H38.252V49.6309H40.7923ZM46.804 56.0778V58.0918H40.1445V56.0778H46.804ZM47.644 49.6309V51.655H40.1445V49.6309H47.644Z" fill="white"/>
  <path d="M29.1942 64.3667H26.0466L26.0669 62.3526H29.1942C30.105 62.3526 30.8675 62.1536 31.4814 61.7555C32.1022 61.3574 32.5677 60.7873 32.8781 60.0451C33.1952 59.3029 33.3538 58.419 33.3538 57.3935V56.5939C33.3538 55.7978 33.2627 55.0927 33.0805 54.4787C32.9051 53.8647 32.642 53.3485 32.2911 52.9302C31.947 52.5119 31.5219 52.1948 31.0159 51.9789C30.5166 51.763 29.9397 51.655 29.2852 51.655H25.9859V49.6309H29.2852C30.2636 49.6309 31.1576 49.7962 31.9672 50.1268C32.7769 50.4506 33.4752 50.9196 34.0622 51.5336C34.656 52.1476 35.1114 52.883 35.4285 53.7399C35.7457 54.5968 35.9042 55.5549 35.9042 56.6142V57.3935C35.9042 58.4528 35.7457 59.4109 35.4285 60.2678C35.1114 61.1246 34.656 61.8601 34.0622 62.4741C33.4685 63.0813 32.76 63.5503 31.9369 63.8809C31.1205 64.2047 30.2062 64.3667 29.1942 64.3667ZM27.4534 49.6309V64.3667H24.9131V49.6309H27.4534Z" fill="white"/>
  <path d="M17.4801 58.871H13.6443V56.8569H17.4801C18.148 56.8569 18.6878 56.749 19.0994 56.5331C19.511 56.3172 19.8112 56.0203 20.0001 55.6425C20.1958 55.2579 20.2936 54.8193 20.2936 54.3268C20.2936 53.8612 20.1958 53.426 20.0001 53.0212C19.8112 52.6096 19.511 52.279 19.0994 52.0294C18.6878 51.7797 18.148 51.6549 17.4801 51.6549H14.4236V64.3665H11.8833V49.6307H17.4801C18.6203 49.6307 19.5886 49.8332 20.3847 50.238C21.1876 50.6361 21.7982 51.1893 22.2166 51.8978C22.6349 52.5995 22.8441 53.4024 22.8441 54.3065C22.8441 55.2579 22.6349 56.0743 22.2166 56.7557C21.7982 57.4372 21.1876 57.9601 20.3847 58.3245C19.5886 58.6888 18.6203 58.871 17.4801 58.871Z" fill="white"/>
</svg>