<svg width="96" height="96" viewBox="0 0 96 96" fill="none" xmlns="http://www.w3.org/2000/svg">
  <path d="M68.0015 8.00085H32.0015C29.8797 8.00085 27.8449 8.84371 26.3446 10.344C24.8443 11.8443 24.0015 13.8791 24.0015 16.0009V80.0008C24.0015 82.1226 24.8443 84.1574 26.3446 85.6577C27.8449 87.158 29.8797 88.0008 32.0015 88.0008H80.0015C82.1232 88.0008 84.158 87.158 85.6583 85.6577C87.1586 84.1574 88.0015 82.1226 88.0015 80.0008V28.0008L68.0015 8.00085Z" fill="white" stroke="#2E2E2E" stroke-width="2.52632" stroke-linecap="round" stroke-linejoin="round"/>
  <path d="M64.001 8.00085V24.0009C64.001 26.1226 64.8438 28.1574 66.3441 29.6577C67.8444 31.158 69.8792 32.0009 72.001 32.0009H88.001" stroke="#2E2E2E" stroke-width="2.52632" stroke-linecap="round" stroke-linejoin="round"/>
  <path fill-rule="evenodd" clip-rule="evenodd" d="M58.1829 71.5093C66.0455 71.5093 72.4193 65.1354 72.4193 57.2729C72.4193 49.4104 66.0455 43.0365 58.1829 43.0365C50.3204 43.0365 43.9466 49.4104 43.9466 57.2729C43.9466 65.1354 50.3204 71.5093 58.1829 71.5093ZM58.1829 73.0911C66.9191 73.0911 74.0011 66.009 74.0011 57.2729C74.0011 48.5368 66.9191 41.4547 58.1829 41.4547C49.4468 41.4547 42.3647 48.5368 42.3647 57.2729C42.3647 66.009 49.4468 73.0911 58.1829 73.0911Z" fill="#2E2E2E" stroke="#2E2E2E" stroke-width="1.26316"/>
  <path fill-rule="evenodd" clip-rule="evenodd" d="M58.1787 42.2441H59.7605V53.3462C59.7605 54.6404 60.8097 55.6896 62.104 55.6896H73.206V57.2714H60.5221C59.2279 57.2714 58.1787 56.2222 58.1787 54.928V42.2441Z" fill="#2E2E2E" stroke="#2E2E2E" stroke-width="1.26316"/>
  <rect x="8" y="34.3643" width="43.6364" height="43.6364" rx="6.54545" fill="#F57A3D"/>
  <path d="M31.1669 58.5746H25.3651V56.233H31.1669C32.2905 56.233 33.2003 56.054 33.8963 55.696C34.5924 55.3381 35.0995 54.8409 35.4177 54.2045C35.7458 53.5682 35.9098 52.8423 35.9098 52.027C35.9098 51.2812 35.7458 50.5803 35.4177 49.924C35.0995 49.2678 34.5924 48.7408 33.8963 48.343C33.2003 47.9354 32.2905 47.7315 31.1669 47.7315H26.0363V67.0909H23.1577V45.375H31.1669C32.8076 45.375 34.1946 45.6584 35.3282 46.2251C36.4617 46.7919 37.3218 47.5774 37.9084 48.5817C38.4951 49.576 38.7884 50.7145 38.7884 51.9972C38.7884 53.3892 38.4951 54.5774 37.9084 55.5618C37.3218 56.5462 36.4617 57.2969 35.3282 57.8139C34.1946 58.321 32.8076 58.5746 31.1669 58.5746Z" fill="white"/>
</svg>
