<svg width="96" height="96" viewBox="0 0 96 96" fill="none" xmlns="http://www.w3.org/2000/svg">
  <path d="M67.4551 8.00085H31.4551C29.3333 8.00085 27.2985 8.84371 25.7982 10.344C24.2979 11.8443 23.4551 13.8791 23.4551 16.0009V80.0008C23.4551 82.1226 24.2979 84.1574 25.7982 85.6577C27.2985 87.158 29.3333 88.0008 31.4551 88.0008H79.4551C81.5768 88.0008 83.6116 87.158 85.1119 85.6577C86.6122 84.1574 87.4551 82.1226 87.4551 80.0008V28.0008L67.4551 8.00085Z" fill="white" stroke="#2E2E2E" stroke-width="2.52632" stroke-linecap="round" stroke-linejoin="round"/>
  <path d="M63.4546 8.00085V24.0009C63.4546 26.1226 64.2974 28.1574 65.7977 29.6577C67.298 31.158 69.3329 32.0009 71.4546 32.0009H87.4546" stroke="#2E2E2E" stroke-width="2.52632" stroke-linecap="round" stroke-linejoin="round"/>
  <path fill-rule="evenodd" clip-rule="evenodd" d="M71.8149 44.1812C71.8149 44.7837 71.3264 45.2722 70.7239 45.2722H61.9967C61.3942 45.2722 60.9058 44.7837 60.9058 44.1812C60.9058 43.5787 61.3942 43.0903 61.9967 43.0903H70.7239C71.3264 43.0903 71.8149 43.5787 71.8149 44.1812Z" fill="#2E2E2E" stroke="#2E2E2E" stroke-width="1.26316"/>
  <path fill-rule="evenodd" clip-rule="evenodd" d="M56.5439 44.1814C56.5439 44.7839 56.0554 45.2723 55.453 45.2723H46.7257C46.1232 45.2723 45.6348 44.7839 45.6348 44.1814C45.6348 43.5789 46.1232 43.0905 46.7257 43.0905H55.453C56.0554 43.0905 56.5439 43.5789 56.5439 44.1814Z" fill="#2E2E2E" stroke="#2E2E2E" stroke-width="1.26316"/>
  <path fill-rule="evenodd" clip-rule="evenodd" d="M71.8153 57.2743C71.8153 57.8768 71.3269 58.3652 70.7244 58.3652H61.9972C61.3947 58.3652 60.9062 57.8768 60.9062 57.2743C60.9062 56.6718 61.3947 56.1833 61.9972 56.1833H70.7244C71.3269 56.1833 71.8153 56.6718 71.8153 57.2743Z" fill="#2E2E2E" stroke="#2E2E2E" stroke-width="1.26316"/>
  <path fill-rule="evenodd" clip-rule="evenodd" d="M56.5439 57.2743C56.5439 57.8768 56.0554 58.3652 55.453 58.3652H46.7257C46.1232 58.3652 45.6348 57.8768 45.6348 57.2743C45.6348 56.6718 46.1232 56.1833 46.7257 56.1833H55.453C56.0554 56.1833 56.5439 56.6718 56.5439 57.2743Z" fill="#2E2E2E" stroke="#2E2E2E" stroke-width="1.26316"/>
  <path fill-rule="evenodd" clip-rule="evenodd" d="M71.8153 70.3623C71.8153 70.9648 71.3269 71.4532 70.7244 71.4532H61.9972C61.3947 71.4532 60.9062 70.9648 60.9062 70.3623C60.9062 69.7598 61.3947 69.2714 61.9972 69.2714H70.7244C71.3269 69.2714 71.8153 69.7598 71.8153 70.3623Z" fill="#2E2E2E" stroke="#2E2E2E" stroke-width="1.26316"/>
  <path fill-rule="evenodd" clip-rule="evenodd" d="M56.5439 70.3623C56.5439 70.9648 56.0554 71.4532 55.453 71.4532H46.7257C46.1232 71.4532 45.6348 70.9648 45.6348 70.3623C45.6348 69.7598 46.1232 69.2714 46.7257 69.2714H55.453C56.0554 69.2714 56.5439 69.7598 56.5439 70.3623Z" fill="#2E2E2E" stroke="#2E2E2E" stroke-width="1.26316"/>
  <rect x="8" y="34.3643" width="43.6364" height="43.6364" rx="6.54545" fill="#0CBA89"/>
  <path d="M24.0624 45.3749L29.2825 53.6973L34.5027 45.3749H37.8585L30.9977 56.1284L38.0226 67.0908H34.6369L29.2825 58.6043L23.9281 67.0908H20.5425L27.5673 56.1284L20.7065 45.3749H24.0624Z" fill="white"/>
</svg>