<svg width="96" height="96" viewBox="0 0 96 96" fill="none" xmlns="http://www.w3.org/2000/svg">
  <path d="M67.4551 8.00085H31.4551C29.3333 8.00085 27.2985 8.84371 25.7982 10.344C24.2979 11.8443 23.4551 13.8791 23.4551 16.0009V80.0008C23.4551 82.1226 24.2979 84.1574 25.7982 85.6577C27.2985 87.158 29.3333 88.0008 31.4551 88.0008H79.4551C81.5768 88.0008 83.6116 87.158 85.1119 85.6577C86.6122 84.1574 87.4551 82.1226 87.4551 80.0008V28.0008L67.4551 8.00085Z" fill="white" stroke="#2E2E2E" stroke-width="2.52632" stroke-linecap="round" stroke-linejoin="round"/>
  <path d="M63.4546 8.00085V24.0009C63.4546 26.1226 64.2974 28.1574 65.7977 29.6577C67.298 31.158 69.3329 32.0009 71.4546 32.0009H87.4546" stroke="#2E2E2E" stroke-width="2.52632" stroke-linecap="round" stroke-linejoin="round"/>
  <path fill-rule="evenodd" clip-rule="evenodd" d="M71.8173 43.9656C71.8173 44.4476 71.4266 44.8384 70.9446 44.8384H37.7809C37.2989 44.8384 36.9082 44.4476 36.9082 43.9656C36.9082 43.4836 37.2989 43.0929 37.7809 43.0929H70.9446C71.4266 43.0929 71.8173 43.4836 71.8173 43.9656Z" fill="#2E2E2E" stroke="#2E2E2E" stroke-width="1.26316"/>
  <path fill-rule="evenodd" clip-rule="evenodd" d="M71.8173 57.0561C71.8173 57.5381 71.4266 57.9288 70.9446 57.9288H37.7809C37.2989 57.9288 36.9082 57.5381 36.9082 57.0561C36.9082 56.5741 37.2989 56.1833 37.7809 56.1833H70.9446C71.4266 56.1833 71.8173 56.5741 71.8173 57.0561Z" fill="#2E2E2E" stroke="#2E2E2E" stroke-width="1.26316"/>
  <path fill-rule="evenodd" clip-rule="evenodd" d="M71.8173 70.1468C71.8173 70.6288 71.4266 71.0195 70.9446 71.0195H37.7809C37.2989 71.0195 36.9082 70.6288 36.9082 70.1468C36.9082 69.6648 37.2989 69.274 37.7809 69.274H70.9446C71.4266 69.274 71.8173 69.6648 71.8173 70.1468Z" fill="#2E2E2E" stroke="#2E2E2E" stroke-width="1.26316"/>
  <rect x="8" y="34.912" width="43.6364" height="43.6364" rx="6.54545" fill="#358BF5"/>
  <path d="M23.9482 61.076L28.2585 45.9226H30.3466L29.1385 51.8139L24.5 67.6385H22.4268L23.9482 61.076ZM19.4886 45.9226L22.919 60.7777L23.9482 67.6385H21.8899L16.625 45.9226H19.4886ZM35.9247 60.7628L39.2805 45.9226H42.1591L36.9091 67.6385H34.8509L35.9247 60.7628ZM30.6598 45.9226L34.8509 61.076L36.3722 67.6385H34.299L29.8246 51.8139L28.6016 45.9226H30.6598Z" fill="white"/>
</svg>