<svg width="96" height="96" viewBox="0 0 96 96" fill="none" xmlns="http://www.w3.org/2000/svg">
  <path d="M60 8.00085H24C21.8783 8.00085 19.8434 8.84371 18.3431 10.344C16.8429 11.8443 16 13.8791 16 16.0009V80.0008C16 82.1226 16.8429 84.1574 18.3431 85.6577C19.8434 87.158 21.8783 88.0008 24 88.0008H72C74.1217 88.0008 76.1566 87.158 77.6568 85.6577C79.1571 84.1574 80 82.1226 80 80.0008V28.0008L60 8.00085Z" fill="white" stroke="#2E2E2E" stroke-width="2.52632" stroke-linecap="round" stroke-linejoin="round"/>
  <path d="M55.9995 8.00085V24.0009C55.9995 26.1226 56.8424 28.1574 58.3427 29.6577C59.8429 31.158 61.8778 32.0009 63.9995 32.0009H79.9995" stroke="#2E2E2E" stroke-width="2.52632" stroke-linecap="round" stroke-linejoin="round"/>
  <path fill-rule="evenodd" clip-rule="evenodd" d="M42.3622 43.9656C42.3622 44.4476 41.9715 44.8384 41.4895 44.8384H30.3259C29.8439 44.8384 29.4531 44.4476 29.4531 43.9656C29.4531 43.4836 29.8439 43.0929 30.3259 43.0929H41.4895C41.9715 43.0929 42.3622 43.4836 42.3622 43.9656Z" fill="#2E2E2E" stroke="#2E2E2E" stroke-width="1.26316"/>
  <path fill-rule="evenodd" clip-rule="evenodd" d="M64.3622 57.0561C64.3622 57.5381 63.9715 57.9288 63.4895 57.9288H30.3259C29.8439 57.9288 29.4531 57.5381 29.4531 57.0561C29.4531 56.5741 29.8439 56.1833 30.3259 56.1833H63.4895C63.9715 56.1833 64.3622 56.5741 64.3622 57.0561Z" fill="#2E2E2E" stroke="#2E2E2E" stroke-width="1.26316"/>
  <path fill-rule="evenodd" clip-rule="evenodd" d="M64.3622 70.1468C64.3622 70.6288 63.9715 71.0195 63.4895 71.0195H30.3259C29.8439 71.0195 29.4531 70.6288 29.4531 70.1468C29.4531 69.6648 29.8439 69.274 30.3259 69.274H63.4895C63.9715 69.274 64.3622 69.6648 64.3622 70.1468Z" fill="#2E2E2E" stroke="#2E2E2E" stroke-width="1.26316"/>
</svg>